<svg viewBox="0 0 199 48" fill="none" xmlns="http://www.w3.org/2000/svg">
<path fill-rule="evenodd" clip-rule="evenodd" d="M24 0H20V4H24V8H16V4H12V8H16V12H12V20H8V24H12V28H8V32H12V40H8V44H12V40H20V48H24V44H32V48C45.2548 48 56 37.2548 56 24C56 10.7452 45.2548 0 32 0C30.6372 0 29.3008 0.113595 28 0.331834V4H24V0ZM16 36H20V32H16V28H12V32H16V36ZM12 24H16V20H12V24ZM16 16V12H20V16H16ZM28 12H24V16H28V20H32V16H28V12ZM28 24H24V28H28V24ZM28 32H32V36H28V32ZM28 36V40H24V36H28Z" fill="white"/>
<path d="M4 8H8V12H4V8Z" fill="white"/>
<path d="M0 24H4V28H0V24Z" fill="white"/>
<path d="M67.6818 38V11.8182H71.5682V15.7727H71.8409C72.3182 14.4773 73.1818 13.4261 74.4318 12.6193C75.6818 11.8125 77.0909 11.4091 78.6591 11.4091C78.9545 11.4091 79.3239 11.4148 79.767 11.4261C80.2102 11.4375 80.5455 11.4545 80.7727 11.4773V15.5682C80.6364 15.5341 80.3239 15.483 79.8352 15.4148C79.358 15.3352 78.8523 15.2955 78.3182 15.2955C77.0455 15.2955 75.9091 15.5625 74.9091 16.0966C73.9205 16.6193 73.1364 17.3466 72.5568 18.2784C71.9886 19.1989 71.7045 20.25 71.7045 21.4318V38H67.6818Z" fill="white"/>
<path d="M94.6656 38.5455C92.1429 38.5455 89.9667 37.9886 88.1372 36.875C86.319 35.75 84.9156 34.1818 83.927 32.1705C82.9497 30.1477 82.461 27.7955 82.461 25.1136C82.461 22.4318 82.9497 20.0682 83.927 18.0227C84.9156 15.9659 86.2906 14.3636 88.052 13.2159C89.8247 12.0568 91.8929 11.4773 94.2565 11.4773C95.6201 11.4773 96.9667 11.7045 98.2963 12.1591C99.6258 12.6136 100.836 13.3523 101.927 14.375C103.018 15.3864 103.887 16.7273 104.535 18.3977C105.183 20.0682 105.507 22.125 105.507 24.5682V26.2727H85.3247V22.7955H101.416C101.416 21.3182 101.12 20 100.529 18.8409C99.9497 17.6818 99.1201 16.767 98.0406 16.0966C96.9724 15.4261 95.711 15.0909 94.2565 15.0909C92.6542 15.0909 91.2679 15.4886 90.0974 16.2841C88.9383 17.0682 88.0463 18.0909 87.4213 19.3523C86.7963 20.6136 86.4838 21.9659 86.4838 23.4091V25.7273C86.4838 27.7045 86.8247 29.3807 87.5065 30.7557C88.1997 32.1193 89.1599 33.1591 90.3872 33.875C91.6145 34.5795 93.0406 34.9318 94.6656 34.9318C95.7224 34.9318 96.677 34.7841 97.5292 34.4886C98.3929 34.1818 99.1372 33.7273 99.7622 33.125C100.387 32.5114 100.87 31.75 101.211 30.8409L105.097 31.9318C104.688 33.25 104.001 34.4091 103.035 35.4091C102.069 36.3977 100.876 37.1705 99.4554 37.7273C98.0349 38.2727 96.4383 38.5455 94.6656 38.5455Z" fill="white"/>
<path d="M113.502 38.2727C112.661 38.2727 111.939 37.9716 111.337 37.3693C110.735 36.767 110.433 36.0455 110.433 35.2045C110.433 34.3636 110.735 33.642 111.337 33.0398C111.939 32.4375 112.661 32.1364 113.502 32.1364C114.343 32.1364 115.064 32.4375 115.666 33.0398C116.269 33.642 116.57 34.3636 116.57 35.2045C116.57 35.7614 116.428 36.2727 116.144 36.7386C115.871 37.2045 115.502 37.5795 115.036 37.8636C114.581 38.1364 114.07 38.2727 113.502 38.2727Z" fill="white"/>
<path d="M134.392 11.8182V15.2273H120.278V11.8182H134.392ZM124.505 38V8.20455C124.505 6.70454 124.858 5.45454 125.562 4.45454C126.267 3.45454 127.181 2.70454 128.306 2.20454C129.431 1.70454 130.619 1.45454 131.869 1.45454C132.858 1.45454 133.664 1.53409 134.289 1.69318C134.914 1.85227 135.38 2 135.687 2.13636L134.528 5.61364C134.323 5.54545 134.039 5.46023 133.676 5.35795C133.323 5.25568 132.858 5.20454 132.278 5.20454C130.948 5.20454 129.988 5.53977 129.397 6.21023C128.818 6.88068 128.528 7.86364 128.528 9.15909V38H124.505Z" fill="white"/>
<path d="M138.973 38V11.8182H142.996V38H138.973ZM141.019 7.45455C140.235 7.45455 139.559 7.1875 138.99 6.65341C138.434 6.11932 138.155 5.47727 138.155 4.72727C138.155 3.97727 138.434 3.33523 138.99 2.80114C139.559 2.26705 140.235 2 141.019 2C141.803 2 142.473 2.26705 143.03 2.80114C143.598 3.33523 143.883 3.97727 143.883 4.72727C143.883 5.47727 143.598 6.11932 143.03 6.65341C142.473 7.1875 141.803 7.45455 141.019 7.45455Z" fill="white"/>
<path d="M153.331 22.25V38H149.308V11.8182H153.194V15.9091H153.535C154.149 14.5795 155.081 13.5114 156.331 12.7045C157.581 11.8864 159.194 11.4773 161.172 11.4773C162.944 11.4773 164.496 11.8409 165.825 12.5682C167.155 13.2841 168.189 14.375 168.927 15.8409C169.666 17.2955 170.035 19.1364 170.035 21.3636V38H166.013V21.6364C166.013 19.5795 165.479 17.9773 164.41 16.8295C163.342 15.6705 161.876 15.0909 160.013 15.0909C158.729 15.0909 157.581 15.3693 156.569 15.9261C155.569 16.483 154.78 17.2955 154.2 18.3636C153.621 19.4318 153.331 20.7273 153.331 22.25Z" fill="white"/>
<path d="M187.307 38.5455C184.785 38.5455 182.609 37.9886 180.779 36.875C178.961 35.75 177.557 34.1818 176.569 32.1705C175.592 30.1477 175.103 27.7955 175.103 25.1136C175.103 22.4318 175.592 20.0682 176.569 18.0227C177.557 15.9659 178.932 14.3636 180.694 13.2159C182.467 12.0568 184.535 11.4773 186.898 11.4773C188.262 11.4773 189.609 11.7045 190.938 12.1591C192.268 12.6136 193.478 13.3523 194.569 14.375C195.66 15.3864 196.529 16.7273 197.177 18.3977C197.825 20.0682 198.148 22.125 198.148 24.5682V26.2727H177.967V22.7955H194.057C194.057 21.3182 193.762 20 193.171 18.8409C192.592 17.6818 191.762 16.767 190.682 16.0966C189.614 15.4261 188.353 15.0909 186.898 15.0909C185.296 15.0909 183.91 15.4886 182.739 16.2841C181.58 17.0682 180.688 18.0909 180.063 19.3523C179.438 20.6136 179.126 21.9659 179.126 23.4091V25.7273C179.126 27.7045 179.467 29.3807 180.148 30.7557C180.842 32.1193 181.802 33.1591 183.029 33.875C184.256 34.5795 185.682 34.9318 187.307 34.9318C188.364 34.9318 189.319 34.7841 190.171 34.4886C191.035 34.1818 191.779 33.7273 192.404 33.125C193.029 32.5114 193.512 31.75 193.853 30.8409L197.739 31.9318C197.33 33.25 196.643 34.4091 195.677 35.4091C194.711 36.3977 193.518 37.1705 192.097 37.7273C190.677 38.2727 189.08 38.5455 187.307 38.5455Z" fill="white"/>
</svg>
